<svg xmlns="http://www.w3.org/2000/svg" viewBox="0 0 471 100" width="471" height="100"><g transform="translate(0,0) scale(1.0)"><path d="M14 7 H86 Q95 7 95 18 V58 Q95 77 77 89 Q62 96 50 96 Q38 96 23 89 Q5 77 5 58 V18 Q5 7 14 7 Z" fill="#FFFFFF"/><circle cx="50" cy="44" r="11" fill="#F59E0B"/><path d="M45.5 50 L42 72 H58 L54.5 50 Z" fill="#F59E0B"/></g><g transform="translate(124,78.0) scale(0.08,-0.08)"><g fill="#FFFFFF"><g transform="translate(0,0)"><path d="M463 0 209 311V0H69V698H209V385L463 698H632L344 352L640 0Z"/></g><g transform="translate(663,0)"><path d="M580 235H175Q180 175 217.0 141.0Q254 107 308 107Q386 107 419 174H570Q546 94 478.0 42.5Q410 -9 311 -9Q231 -9 167.5 26.5Q104 62 68.5 127.0Q33 192 33 277Q33 363 68.0 428.0Q103 493 166.0 528.0Q229 563 311 563Q390 563 452.5 529.0Q515 495 549.5 432.5Q584 370 584 289Q584 259 580 235ZM439 329Q438 383 400.0 415.5Q362 448 307 448Q255 448 219.5 416.5Q184 385 176 329Z"/></g><g transform="translate(1280,0)"><path d="M599 554 256 -262H107L227 14L5 554H162L305 167L450 554Z"/></g><g transform="translate(1885,0)"><path d="M39 175H180Q184 143 211.5 122.0Q239 101 280 101Q320 101 342.5 117.0Q365 133 365 158Q365 185 337.5 198.5Q310 212 250 228Q188 243 148.5 259.0Q109 275 80.5 308.0Q52 341 52 397Q52 443 78.5 481.0Q105 519 154.5 541.0Q204 563 271 563Q370 563 429.0 513.5Q488 464 494 380H360Q357 413 332.5 432.5Q308 452 267 452Q229 452 208.5 438.0Q188 424 188 399Q188 371 216.0 356.5Q244 342 303 327Q363 312 402.0 296.0Q441 280 469.5 246.5Q498 213 499 158Q499 110 472.5 72.0Q446 34 396.5 12.5Q347 -9 281 -9Q213 -9 159.0 15.5Q105 40 73.5 82.0Q42 124 39 175Z"/></g></g><g fill="#F59E0B"><g transform="translate(2430,0)"><path d="M497 133H219L173 0H26L277 699H440L691 0H543ZM459 245 358 537 257 245Z"/></g><g transform="translate(3146,0)"><path d="M379 562V415H342Q276 415 242.5 384.0Q209 353 209 276V0H69V554H209V468Q236 512 279.5 537.0Q323 562 379 562Z"/></g><g transform="translate(3550,0)"><path d="M397 0 209 236V0H69V740H209V319L395 554H577L333 276L579 0Z"/></g></g></g></svg>